<?xml version="1.0" standalone="no"?>
<!DOCTYPE svg PUBLIC "-//W3C//DTD SVG 20010904//EN"
 "http://www.w3.org/TR/2001/REC-SVG-20010904/DTD/svg10.dtd">
<svg version="1.0" xmlns="http://www.w3.org/2000/svg"
 width="500.000000pt" height="500.000000pt" viewBox="0 0 500.000000 500.000000"
 preserveAspectRatio="xMidYMid meet">
<metadata>
Created by potrace 1.14, written by Peter Selinger 2001-2017
</metadata>
<g transform="translate(0.000000,500.000000) scale(0.100000,-0.100000)"
fill="#000000" stroke="none">
<path d="M1762 3548 c-81 -9 -126 -36 -168 -102 -10 -16 -20 -36 -22 -45 -3
-9 -5 -487 -6 -1063 -2 -918 0 -1052 13 -1095 16 -51 47 -84 114 -120 l41 -22
757 -1 c662 0 763 2 796 16 21 9 44 23 51 32 6 9 12 12 12 8 0 -15 47 49 55
74 4 14 11 30 15 35 7 9 9 91 10 372 0 79 1 82 35 117 19 20 33 36 30 36 -2 0
8 13 23 29 15 16 41 45 57 66 17 20 38 47 49 59 10 11 37 43 60 70 22 28 51
60 63 73 12 13 20 23 18 23 -2 0 8 12 22 27 14 16 42 48 62 73 20 24 46 54 59
66 12 12 22 24 22 28 0 4 9 17 21 29 38 40 55 89 54 154 0 52 -5 68 -35 112
-74 109 -227 127 -320 38 -40 -38 -110 -116 -110 -122 0 -2 -10 -15 -22 -28
-13 -14 -35 -40 -50 -58 -14 -19 -29 -32 -32 -29 -2 3 -6 167 -9 365 -2 198
-6 369 -8 380 -2 11 -13 31 -24 45 -22 27 -153 158 -234 232 -28 26 -51 52
-51 58 0 6 -4 8 -10 5 -6 -3 -10 -1 -10 5 0 6 -25 23 -56 37 l-56 26 -577 1
c-317 0 -605 -2 -639 -6z m1083 -150 c4 -3 6 -85 6 -182 -1 -140 2 -183 14
-206 9 -17 19 -31 23 -31 4 -1 90 -2 192 -3 102 -1 190 -5 196 -9 8 -4 9 -19
4 -41 -4 -19 -6 -37 -3 -39 4 -4 6 -132 3 -152 -1 -5 -1 -35 0 -65 1 -30 1
-62 1 -70 0 -8 0 -62 0 -120 0 -205 0 -225 -4 -250 -3 -14 -5 -27 -6 -30 0 -3
-15 -21 -32 -40 -17 -19 -43 -52 -59 -72 -15 -21 -30 -34 -34 -31 -3 3 -6 1
-6 -5 0 -6 -10 -22 -22 -36 -13 -14 -36 -42 -53 -62 -16 -20 -40 -47 -52 -60
-13 -13 -23 -28 -23 -34 0 -5 -4 -10 -8 -10 -18 0 -69 -134 -65 -170 1 -3 -3
-12 -8 -21 -4 -9 -11 -29 -13 -45 -3 -16 -12 -53 -20 -83 -16 -61 -12 -97 11
-123 23 -26 62 -22 140 13 78 35 116 52 123 53 3 1 32 14 64 29 33 15 62 23
65 18 7 -11 5 -175 -2 -214 -9 -46 -27 -55 -115 -59 -45 -2 -82 1 -82 6 0 5
-6 3 -13 -3 -8 -6 -16 -9 -19 -6 -3 3 -293 5 -646 6 -627 0 -641 1 -666 20
l-26 20 0 1025 c0 1123 -2 1079 57 1086 51 6 1072 2 1078 -4z m185 -61 c0 -6
2 -8 5 -5 5 5 215 -194 215 -204 0 -6 -208 -8 -231 -2 -14 4 -17 22 -18 119 0
97 2 113 14 109 8 -4 15 -11 15 -17z m817 -808 c20 -17 16 -69 -9 -106 -24
-35 -55 -43 -64 -18 -4 8 -10 15 -15 15 -15 0 -49 39 -49 56 0 9 14 29 32 46
26 24 38 29 62 24 16 -3 35 -11 43 -17z m-183 -223 c40 -33 44 -45 19 -67 -10
-9 -32 -34 -50 -55 -18 -21 -42 -51 -55 -66 -13 -14 -30 -35 -38 -45 -28 -34
-115 -138 -120 -143 -3 -3 -27 -31 -53 -62 -27 -32 -52 -58 -56 -58 -13 0
-106 89 -93 90 6 0 12 6 12 13 0 6 23 36 50 65 28 28 48 52 45 52 -3 0 12 18
33 40 22 21 37 41 35 44 -3 2 4 11 16 18 12 7 21 18 21 25 0 6 3 13 8 15 7 3
18 16 121 136 34 40 46 48 56 39 7 -7 29 -25 49 -41z m-486 -580 c41 -39 42
-40 23 -57 -28 -27 -140 -79 -146 -69 -5 8 -2 33 10 80 2 8 4 22 4 30 2 22 44
69 56 62 5 -3 29 -24 53 -46z"/>
<path d="M1910 3122 c-57 -9 -79 -84 -37 -125 l22 -23 388 1 389 0 19 24 c19
23 25 67 11 87 -22 34 -54 37 -412 38 -195 1 -366 -1 -380 -2z"/>
<path d="M1882 2677 c-54 -24 -29 -136 30 -138 142 -4 1142 -1 1169 5 59 11
80 78 38 121 -19 20 -33 20 -617 21 -359 0 -607 -3 -620 -9z"/>
<path d="M1883 2247 c-24 -11 -39 -61 -29 -95 15 -45 22 -45 642 -45 584 0
586 1 615 22 35 26 39 66 9 103 l-19 25 -598 0 c-389 1 -606 -3 -620 -10z"/>
<path d="M1885 1818 c-29 -16 -35 -28 -35 -68 0 -29 6 -39 31 -54 28 -17 60
-18 400 -18 420 0 423 1 427 72 2 30 -2 42 -23 58 -25 20 -40 20 -403 21 -268
1 -383 -3 -397 -11z"/>
</g>
</svg>
